<svg t="1609603806189" class="icon" viewBox="0 0 1024 1024" version="1.1" xmlns="http://www.w3.org/2000/svg" p-id="15066" width="128" height="128"><path d="M639.465578 652.355655c9.188266 0 16.669658-7.481392 16.669658-16.643052 0-9.216919-7.481392-16.698311-16.669658-16.698311l-93.083002 0 85.330434-85.383646c6.478552-6.505158 6.478552-17.049305 0-23.555485-6.505158-6.505158-17.076934-6.505158-23.582091 0l-85.35704 85.35704-85.384669-85.35704c-6.505158-6.559393-17.076934-6.559393-23.582091 0-6.478552 6.505158-6.478552 17.022699 0 23.555485l85.35704 85.383646-93.109608 0c-9.188266 0-16.670681 7.482415-16.670681 16.698311 0 9.16166 7.481392 16.643052 16.670681 16.643052l100.022041 0 0 33.341363-100.022041 0c-9.188266 0-16.670681 7.481392-16.670681 16.696264 0 9.18929 7.481392 16.670681 16.670681 16.670681l100.022041 0 0 68.387553c0 9.163707 7.481392 16.645099 16.697287 16.645099 9.188266 0 16.643052-7.481392 16.643052-16.645099l0-68.387553 100.04967 0c9.188266 0 16.669658-7.481392 16.669658-16.670681 0-9.215896-7.481392-16.696264-16.669658-16.696264l-100.04967 0 0-33.341363L639.465578 652.355655z" p-id="15067"></path><path d="M680.423409 327.541895c37.731346-25.39846 87.905072-63.591317 87.905072-114.415866 0-50.931996-18.811438-76.41232-37.731346-89.070618-18.215874-11.114129-38.572504-17.890462-61.070914-17.890462-16.210193 0-33.55728 3.523243-51.990095 11.520381-24.856108-37.758975-62.072731-50.553373-105.442494-50.79692l0-0.026606c-0.026606 0-0.055259 0-0.10847 0-0.026606 0-0.054235 0-0.080841 0l0 0.026606c-43.369763 0.243547-80.586386 13.037944-105.443517 50.79692-18.432815-7.996115-35.779901-11.520381-51.990095-11.520381-22.49841 0-42.85504 6.776334-61.070914 17.890462-18.919908 12.658298-37.731346 38.138622-37.731346 89.070618 0 50.824549 50.173726 89.017406 87.905072 114.415866C268.273535 378.447285 104.877117 505.684154 117.427968 747.30926c-12.550851 190.718693 157.053965 209.827913 157.053965 209.827913l237.423411 0 0.190335 0 237.423411 0c0 0 169.602769-19.10922 157.053965-209.827913C919.119813 505.684154 755.724419 378.447285 680.423409 327.541895zM745.64076 900.94743 511.904321 900.94743 278.465664 900.94743c-24.50409-3.957125-113.059985-26.889417-104.9554-149.95222 0.1361-2.194992 0.1361-4.391007 0.027629-6.613628C165.757696 594.349543 233.550709 469.741547 375.045303 374.083907c15.477506-10.463306 24.747637-27.919886 24.721031-46.595224-0.026606-18.676361-9.324366-36.132942-24.801872-46.568618-41.878806-28.16241-63.1032-50.986231-63.1032-67.793012 0-21.494547 4.662183-36.918841 10.787694-41.092907 10.680247-6.505158 21.088294-9.677407 31.822776-9.677407 9.135054 0 19.110243 2.331092 29.65439 6.884804 7.237845 3.14462 14.827707 4.635577 22.309098 4.635577 18.431791 0 36.294624-9.080819 46.974871-25.289989 8.620331-13.09218 21.684882-25.263383 58.359152-25.53456l0 0.027629c37.080523 0.216941 50.201355 12.387122 58.81964 25.50693 10.680247 16.20917 28.54308 25.289989 46.974871 25.289989 7.482415 0 15.071254-1.490957 22.309098-4.635577 10.544147-4.553713 20.519336-6.884804 29.65439-6.884804 10.733459 0 21.142529 3.171226 29.817096 8.402367 8.131191 5.448082 12.794397 20.871353 12.794397 42.366923 0 16.805758-21.224394 39.629579-63.1032 67.793012-15.477506 10.435677-24.775266 27.892257-24.801872 46.568618-0.026606 18.675338 9.242502 36.132942 24.720008 46.595224C790.447245 469.741547 858.239234 594.349543 850.461083 744.381581c-0.10847 2.222621-0.10847 4.418636 0.026606 6.613628C858.64651 874.626971 769.196245 897.206222 745.64076 900.94743z" p-id="15068"></path></svg>
