<?xml version="1.0" standalone="no"?><!DOCTYPE svg PUBLIC "-//W3C//DTD SVG 1.1//EN" "http://www.w3.org/Graphics/SVG/1.1/DTD/svg11.dtd"><svg t="1608049623963" class="icon" viewBox="0 0 1024 1024" version="1.1" xmlns="http://www.w3.org/2000/svg" p-id="1109" xmlns:xlink="http://www.w3.org/1999/xlink" width="200" height="200"><defs><style type="text/css"></style></defs><path d="M230 577q-9 7-17 17.5T202 619q-5 18 0 39.5t22 39.5q23 22 49.5 30t42.5 9q39 2 77.5-13t69.5-38q13-8 31.5-25.5T534 616q-45-24-99-43t-114-18q-60 4-91 22z m753 135q41-96 41-200-6-217-150.5-361.5T512 0Q295 6 150.5 150.5T0 512q6 217 150.5 361.5T512 1024q129-1 236.5-58T927 812L604 653q-32 37-77.5 69T427 771q-33 10-64 13t-62.5-3.5Q269 774 246 761t-37-28q-14-15-26-38l1 3-3-5q-2-5-5-14t-3-18q-1-7 0-13-1-12 1-24 3-16 11-33t24-33q39-35 80.5-43.5T358 507q40 1 97.5 15T570 556q15-33 25.5-65t16.5-56H305v-33h158v-67H272v-33h191v-66q-1-7 2.5-12t13.5-5h75v83h207v33H554v67h166q0 3-15 57.5T651 586q92 33 189.5 70.5T983 712z" fill="#666666" p-id="1110"></path></svg>