<?xml version="1.0" standalone="no"?><!DOCTYPE svg PUBLIC "-//W3C//DTD SVG 1.1//EN" "http://www.w3.org/Graphics/SVG/1.1/DTD/svg11.dtd"><svg t="1609603345967" class="icon" viewBox="0 0 1024 1024" version="1.1" xmlns="http://www.w3.org/2000/svg" p-id="11634" xmlns:xlink="http://www.w3.org/1999/xlink" width="128" height="128"><defs><style type="text/css"></style></defs><path d="M924.444444 805.546667V92.16a22.755556 22.755556 0 0 0-22.755555-22.755556H265.671111a22.755556 22.755556 0 0 0-22.755555 22.755556v68.266667a22.755556 22.755556 0 1 0 45.511111 0V113.777778h590.506666v669.013333h-56.888889a22.755556 22.755556 0 1 0 0 45.511111h79.644445a22.755556 22.755556 0 0 0 22.755555-22.755555z" p-id="11635"></path><path d="M122.311111 956.871111h636.017778a22.755556 22.755556 0 0 0 22.755555-22.755555V221.297778a22.755556 22.755556 0 0 0-22.755555-22.755556H122.311111a22.755556 22.755556 0 0 0-22.755555 22.755556v712.817778a22.755556 22.755556 0 0 0 22.755555 22.755555z m22.755556-712.817778h590.506666V910.222222H145.066667z" p-id="11636"></path><path d="M561.493333 550.115556a22.755556 22.755556 0 1 0 0-45.511112H492.088889L564.337778 432.355556a22.755556 22.755556 0 1 0-31.857778-34.133334L437.475556 494.933333 348.16 406.186667a22.755556 22.755556 0 0 0-31.857778 31.857777l65.991111 66.56H319.146667a22.755556 22.755556 0 1 0 0 45.511112h98.417777v56.888888H319.146667a22.755556 22.755556 0 0 0 0 45.511112h98.417777V739.555556a22.755556 22.755556 0 0 0 45.511112 0v-88.177778h98.417777a22.755556 22.755556 0 1 0 0-45.511111H463.075556v-56.888889z" p-id="11637"></path></svg>