<?xml version="1.0" standalone="no"?><!DOCTYPE svg PUBLIC "-//W3C//DTD SVG 1.1//EN" "http://www.w3.org/Graphics/SVG/1.1/DTD/svg11.dtd"><svg t="1609602092416" class="icon" viewBox="0 0 1024 1024" version="1.1" xmlns="http://www.w3.org/2000/svg" p-id="5423" xmlns:xlink="http://www.w3.org/1999/xlink" width="128" height="128"><defs><style type="text/css"></style></defs><path d="M631.488 597.333c-56.939-40.128-127.787-64-204.821-64C244.928 533.333 97.792 666.091 86.08 832h340.587V682.667c0-47.147 38.272-85.334 85.269-85.334h119.53z m125.995 0H938.73A85.333 85.333 0 0 1 1024 682.667v256c0 47.146-38.272 85.333-85.27 85.333H511.937a85.333 85.333 0 0 1-85.27-85.333v-21.334H5.292a388.352 388.352 0 0 1-5.291-64c0-177.258 119.765-327.936 286.635-382.997A255.787 255.787 0 0 1 170.667 256c0-141.376 114.624-256 256-256s256 114.624 256 256a255.787 255.787 0 0 1-115.968 214.336c75.477 24.896 141.312 69.355 190.784 126.997zM512 917.291c0 11.797 9.707 21.376 21.163 21.376h384.426c11.67 0 21.142-9.728 21.12-21.376l-0.042-213.248c0-11.798-9.707-21.376-21.163-21.376H533.077c-11.669 0-21.141 9.728-21.12 21.376L512 917.29z m42.667-159.958c0-17.664 14.229-32 32.106-32h277.12a31.979 31.979 0 1 1 0 64h-277.12a31.979 31.979 0 0 1-32.106-32z m0 106.667c0-17.664 14.229-32 32.106-32h277.12a31.979 31.979 0 1 1 0 64h-277.12a31.979 31.979 0 0 1-32.106-32z m-128-437.333a170.667 170.667 0 1 0 0-341.334 170.667 170.667 0 0 0 0 341.334z" p-id="5424"></path></svg>