<?xml version="1.0" standalone="no"?><!DOCTYPE svg PUBLIC "-//W3C//DTD SVG 1.1//EN" "http://www.w3.org/Graphics/SVG/1.1/DTD/svg11.dtd"><svg t="1609603957859" class="icon" viewBox="0 0 1024 1024" version="1.1" xmlns="http://www.w3.org/2000/svg" p-id="17200" xmlns:xlink="http://www.w3.org/1999/xlink" width="128" height="128"><defs><style type="text/css"></style></defs><path d="M495.808 32l25.792 17.344c0.608 0.48 66.016 44.288 167.616 82.56a656.736 656.736 0 0 0 195.808 39.104l42.72 0.672 0.256 403.52C928 777.76 647.136 992 496 992 344.992 992 64 777.728 64 575.168V171.648l42.88-0.64a656.32 656.32 0 0 0 195.776-39.104c101.536-38.272 166.944-82.08 167.552-82.496l25.6-17.408z m143.168 227.488a38.336 38.336 0 0 0-48.864 15.2l-0.288 0.48-0.256 0.48-93.568 167.456-93.568-167.456a38.336 38.336 0 0 0-53.12-14.24l-0.704 0.448a39.744 39.744 0 0 0-14.304 53.504l83.456 149.44h-58.016c-21.952 0-39.744 17.792-39.744 39.744v1.376c0 21.952 17.792 39.744 39.744 39.744l97.12-0.032v40.448h-97.12c-21.952 0-39.744 17.792-39.744 39.744v1.376c0 21.952 17.792 39.744 39.744 39.744l97.12-0.032v61.984a39.104 39.104 0 1 0 78.24 0V666.88h97.152c21.952 0 39.744-17.76 39.744-39.712v-1.376c0-21.952-17.792-39.744-39.744-39.744h-97.152v-40.448h97.152c21.952 0 39.744-17.76 39.744-39.68v-1.408c0-21.952-17.792-39.744-39.744-39.744h-58.048l83.52-149.44 1.856-3.84a39.744 39.744 0 0 0-16.192-49.664l-0.736-0.448z" p-id="17201"></path></svg>