<svg t="1609604762599" class="icon" viewBox="0 0 1024 1024" version="1.1" xmlns="http://www.w3.org/2000/svg" p-id="22336" width="128" height="128"><path d="M458.90048 922.10176a38.28736 38.28736 0 0 1-27.15648-11.24864L113.152 592.25088a38.4 38.4 0 0 1 0-54.30272L537.94304 113.152a38.016 38.016 0 0 1 27.81184-11.24352l314.30144 5.36576a38.4 38.4 0 0 1 37.73952 37.86752l4.29568 313.23136a38.4 38.4 0 0 1-11.2384 27.67872L486.05696 910.848a38.29248 38.29248 0 0 1-27.15648 11.25376zM194.6112 565.09952l264.28928 264.2944 386.176-386.176-3.5584-259.78368-260.78208-4.4544-386.1248 386.11968z" p-id="22337"></path><path d="M667.2128 356.79744m-76.8 0a76.8 76.8 0 1 0 153.6 0 76.8 76.8 0 1 0-153.6 0Z" p-id="22338"></path></svg>
