<?xml version="1.0" standalone="no"?><!DOCTYPE svg PUBLIC "-//W3C//DTD SVG 1.1//EN" "http://www.w3.org/Graphics/SVG/1.1/DTD/svg11.dtd"><svg t="1609603997931" class="icon" viewBox="0 0 1024 1024" version="1.1" xmlns="http://www.w3.org/2000/svg" p-id="17646" xmlns:xlink="http://www.w3.org/1999/xlink" width="128" height="128"><defs><style type="text/css"></style></defs><path d="M608 928c-4.266667 0-8.533333-2.133333-12.8-4.266667L512 855.466667l-83.2 64c-8.533333 6.4-19.2 6.4-25.6 0l-83.2-64-83.2 66.133333c-4.266667 2.133333-8.533333 4.266667-12.8 4.266667-12.8 0-23.466667-10.666667-23.466667-23.466667V629.333333c0-12.8 8.533333-21.333333 21.333334-21.333333s21.333333 8.533333 21.333333 21.333333v234.666667l64-51.2c8.533333-6.4 19.2-6.4 25.6 0l83.2 64 83.2-64c8.533333-6.4 19.2-6.4 25.6 0l83.2 66.133333 83.2-66.133333c8.533333-6.4 19.2-6.4 27.733333 0l64 51.2V128H416c-61.866667 64-149.333333 155.733333-172.8 179.2v192c0 12.8-8.533333 21.333333-21.333333 21.333333s-21.333333-8.533333-21.333334-21.333333V298.666667c0-8.533333 0-8.533333 189.866667-204.8 4.266667-8.533333 17.066667-8.533333 213.333333-8.533334h196.266667c12.8 0 23.466667 10.666667 23.466667 23.466667v793.6c0 12.8-10.666667 23.466667-23.466667 23.466667-4.266667 0-10.666667-2.133333-12.8-4.266667l-83.2-64-83.2 66.133333c-4.266667 2.133333-8.533333 4.266667-12.8 4.266667z" p-id="17647"></path><path d="M377.6 320h-153.6v-42.666667h153.6c2.133333 0 6.4-4.266667 6.4-10.666666V106.666667h42.666667v160c0 29.866667-21.333333 53.333333-49.066667 53.333333zM339.2 714.666667c-2.133333 0-6.4 0-8.533333-2.133334-8.533333-4.266667-12.8-10.666667-12.8-19.2v-42.666666H149.333333c-12.8 0-21.333333-8.533333-21.333333-21.333334v-130.133333c0-12.8 8.533333-21.333333 21.333333-21.333333h168.533334v-42.666667c0-8.533333 4.266667-17.066667 12.8-19.2 8.533333-4.266667 17.066667-2.133333 23.466666 4.266667l140.8 130.133333c4.266667 4.266667 6.4 10.666667 6.4 14.933333s-2.133333 10.666667-6.4 14.933334l-140.8 130.133333c-4.266667 2.133333-8.533333 4.266667-14.933333 4.266667z m-168.533333-106.666667h168.533333c12.8 0 21.333333 8.533333 21.333333 21.333333v14.933334l87.466667-81.066667-87.466667-81.066667v14.933334c0 12.8-8.533333 21.333333-21.333333 21.333333H170.666667v89.6zM725.333333 320h-170.666666c-12.8 0-21.333333-8.533333-21.333334-21.333333s8.533333-21.333333 21.333334-21.333334h170.666666c12.8 0 21.333333 8.533333 21.333334 21.333334s-8.533333 21.333333-21.333334 21.333333zM725.333333 448h-170.666666c-12.8 0-21.333333-8.533333-21.333334-21.333333s8.533333-21.333333 21.333334-21.333334h170.666666c12.8 0 21.333333 8.533333 21.333334 21.333334s-8.533333 21.333333-21.333334 21.333333zM725.333333 576h-170.666666c-12.8 0-21.333333-8.533333-21.333334-21.333333s8.533333-21.333333 21.333334-21.333334h170.666666c12.8 0 21.333333 8.533333 21.333334 21.333334s-8.533333 21.333333-21.333334 21.333333zM725.333333 704h-170.666666c-12.8 0-21.333333-8.533333-21.333334-21.333333s8.533333-21.333333 21.333334-21.333334h170.666666c12.8 0 21.333333 8.533333 21.333334 21.333334s-8.533333 21.333333-21.333334 21.333333z" p-id="17648"></path></svg>