<svg t="1609601790237" class="icon" viewBox="0 0 1024 1024" version="1.1" xmlns="http://www.w3.org/2000/svg" p-id="3622" width="128" height="128"><path d="M833 373.82a6.75 6.75 0 0 0-2-4.77L566.13 99.51a6.72 6.72 0 0 0-4.75-2H236.14A43.32 43.32 0 0 0 193 140.82v744.46a43.34 43.34 0 0 0 43.16 43.26h553.69a43.32 43.32 0 0 0 43.15-43.3zM638.11 687c13.81 0 25 10.79 25 24.11s-11.19 24.1-25 24.1H538v97.1c0 13.32-11.19 24.11-25 24.11s-25-10.79-25-24.11V735.2H384.58c-13.81 0-25-10.79-25-24.1s11.19-24.11 25-24.11H488v-74.52H384.58c-13.81 0-25-10.79-25-24.1s11.19-24.11 25-24.11h66.95L399 513.61a23.49 23.49 0 0 1 0-34.09 25.66 25.66 0 0 1 35.35 0L511.62 554 594 474.58a25.66 25.66 0 0 1 35.35 0 23.49 23.49 0 0 1 0 34.09l-57.65 55.59h66.41c13.81 0 25 10.79 25 24.11s-11.19 24.1-25 24.1H538V687zM775 401.47H543a6.73 6.73 0 0 1-6.72-6.74v-232.6a6.72 6.72 0 0 1 11.48-4.77l232 232.6a6.74 6.74 0 0 1-4.76 11.51z" p-id="3623"></path></svg>
