<?xml version="1.0" standalone="no"?><!DOCTYPE svg PUBLIC "-//W3C//DTD SVG 1.1//EN" "http://www.w3.org/Graphics/SVG/1.1/DTD/svg11.dtd"><svg t="1609601824503" class="icon" viewBox="0 0 1024 1024" version="1.1" xmlns="http://www.w3.org/2000/svg" p-id="3814" xmlns:xlink="http://www.w3.org/1999/xlink" width="128" height="128"><defs><style type="text/css"></style></defs><path d="M796.444444 455.111111c0 28.444444-28.444444 56.888889-56.888888 56.888889h-170.666667v56.888889h113.777778c28.444444 0 56.888889 28.444444 56.888889 56.888889s-28.444444 56.888889-56.888889 56.888889h-113.777778v56.888889c0 28.444444-28.444444 56.888889-56.888889 56.888888s-56.888889-28.444444-56.888889-56.888888v-56.888889H341.333333c-28.444444 0-56.888889-28.444444-56.888889-56.888889s28.444444-56.888889 56.888889-56.888889h113.777778V512H284.444444c-28.444444 0-56.888889-28.444444-56.888888-56.888889s28.444444-56.888889 56.888888-56.888889h96.711112L312.888889 324.266667c-22.755556-22.755556-22.755556-56.888889 0-79.644445 22.755556-22.755556 56.888889-22.755556 79.644444 0l125.155556 125.155556 125.155555-125.155556c22.755556-22.755556 56.888889-22.755556 79.644445 0 22.755556 22.755556 22.755556 56.888889 0 79.644445L648.533333 398.222222H739.555556c28.444444 0 56.888889 28.444444 56.888888 56.888889z" p-id="3815"></path><path d="M1012.622222 682.666667c-85.333333 204.8-278.755556 341.333333-500.622222 341.333333-153.6 0-295.822222-62.577778-392.533333-170.666667v113.777778c0 28.444444-28.444444 56.888889-56.888889 56.888889s-56.888889-28.444444-56.888889-56.888889v-301.511111c0-22.755556 11.377778-45.511111 34.133333-51.2 5.688889-5.688889 17.066667-5.688889 22.755556-5.688889 22.755556 0 39.822222 11.377778 51.2 28.444445v5.688888C182.044444 802.133333 335.644444 910.222222 512 910.222222s329.955556-108.088889 398.222222-267.377778c11.377778-28.444444 45.511111-45.511111 73.955556-28.444444s39.822222 39.822222 28.444444 68.266667zM17.066667 341.333333c85.333333-204.8 278.755556-341.333333 500.622222-341.333333 153.6 0 295.822222 62.577778 392.533333 170.666667V56.888889c0-28.444444 28.444444-56.888889 56.888889-56.888889s56.888889 28.444444 56.888889 56.888889v301.511111c0 22.755556-11.377778 45.511111-34.133333 51.2-5.688889 5.688889-17.066667 5.688889-22.755556 5.688889-22.755556 0-39.822222-11.377778-51.2-28.444445v-5.688888c-68.266667-164.977778-227.555556-267.377778-398.222222-267.377778-176.355556 0-329.955556 108.088889-398.222222 267.377778-11.377778 28.444444-45.511111 45.511111-73.955556 34.133333S0 369.777778 17.066667 341.333333z" p-id="3816"></path></svg>